<mxfile>
    <diagram id="9Lm7gcBrdfigQSujY85D" name="Page-1">
        <mxGraphModel dx="1146" dy="506" grid="1" gridSize="10" guides="1" tooltips="1" connect="1" arrows="1" fold="1" page="1" pageScale="1" pageWidth="850" pageHeight="1100" background="#FFFFFF" math="0" shadow="0">
            <root>
                <mxCell id="0"/>
                <mxCell id="1" parent="0"/>
                <mxCell id="8" value="" style="edgeStyle=orthogonalEdgeStyle;rounded=0;orthogonalLoop=1;jettySize=auto;html=1;" parent="1" source="5" target="7" edge="1">
                    <mxGeometry relative="1" as="geometry"/>
                </mxCell>
                <mxCell id="23" value="HAS_ARTICLE" style="edgeLabel;html=1;align=center;verticalAlign=middle;resizable=0;points=[];" parent="8" vertex="1" connectable="0">
                    <mxGeometry x="0.2457" relative="1" as="geometry">
                        <mxPoint x="-9" y="-20" as="offset"/>
                    </mxGeometry>
                </mxCell>
                <mxCell id="5" value="Category" style="ellipse;whiteSpace=wrap;html=1;aspect=fixed;" parent="1" vertex="1">
                    <mxGeometry x="42.5" y="150.09000000000003" width="80" height="80" as="geometry"/>
                </mxCell>
                <mxCell id="7" value="Article" style="ellipse;whiteSpace=wrap;html=1;aspect=fixed;" parent="1" vertex="1">
                    <mxGeometry x="202.5" y="150.09000000000003" width="80" height="80" as="geometry"/>
                </mxCell>
                <mxCell id="40" style="edgeStyle=none;rounded=0;orthogonalLoop=1;jettySize=auto;html=1;exitX=0;exitY=0;exitDx=0;exitDy=0;entryX=1;entryY=0;entryDx=0;entryDy=0;" edge="1" parent="1" source="9" target="13">
                    <mxGeometry relative="1" as="geometry"/>
                </mxCell>
                <mxCell id="42" value="PATH_START" style="edgeLabel;html=1;align=center;verticalAlign=middle;resizable=0;points=[];" vertex="1" connectable="0" parent="40">
                    <mxGeometry x="-0.4141" y="2" relative="1" as="geometry">
                        <mxPoint x="-23" y="-14" as="offset"/>
                    </mxGeometry>
                </mxCell>
                <mxCell id="41" style="edgeStyle=none;rounded=0;orthogonalLoop=1;jettySize=auto;html=1;exitX=0;exitY=1;exitDx=0;exitDy=0;entryX=1;entryY=1;entryDx=0;entryDy=0;" edge="1" parent="1" source="9" target="13">
                    <mxGeometry relative="1" as="geometry"/>
                </mxCell>
                <mxCell id="43" value="PATH_END" style="edgeLabel;html=1;align=center;verticalAlign=middle;resizable=0;points=[];" vertex="1" connectable="0" parent="41">
                    <mxGeometry x="-0.4317" y="1" relative="1" as="geometry">
                        <mxPoint x="-24" y="11" as="offset"/>
                    </mxGeometry>
                </mxCell>
                <mxCell id="9" value="Path" style="ellipse;whiteSpace=wrap;html=1;aspect=fixed;" parent="1" vertex="1">
                    <mxGeometry x="552.5" y="150.09000000000003" width="80" height="80" as="geometry"/>
                </mxCell>
                <mxCell id="10" value="&lt;b&gt;name&lt;/b&gt;: (string)" style="text;html=1;strokeColor=none;fillColor=none;align=left;verticalAlign=middle;whiteSpace=wrap;rounded=0;" parent="1" vertex="1">
                    <mxGeometry x="40" y="250" width="85" height="39.94" as="geometry"/>
                </mxCell>
                <mxCell id="11" value="&lt;b&gt;name&lt;/b&gt;: (string)" style="text;html=1;strokeColor=none;fillColor=none;align=left;verticalAlign=middle;whiteSpace=wrap;rounded=0;" parent="1" vertex="1">
                    <mxGeometry x="195" y="250.00000000000006" width="95" height="39.94" as="geometry"/>
                </mxCell>
                <mxCell id="12" value="&lt;b&gt;finished&lt;/b&gt;: (bool)&lt;br&gt;&lt;b&gt;hashedIpAddress&lt;/b&gt;: (string)&lt;br&gt;&lt;b&gt;timestamp&lt;/b&gt;: (int)&lt;br&gt;&lt;b&gt;durationInSec&lt;/b&gt;: (int)&lt;br&gt;&lt;b&gt;rating&lt;/b&gt;: (int) (optional)&lt;br&gt;&lt;b&gt;unfinished_type&lt;/b&gt;: (string) (optional)" style="text;html=1;strokeColor=none;fillColor=none;align=left;verticalAlign=middle;whiteSpace=wrap;rounded=0;" parent="1" vertex="1">
                    <mxGeometry x="552.5" y="250" width="200" height="120" as="geometry"/>
                </mxCell>
                <mxCell id="36" style="edgeStyle=none;rounded=0;orthogonalLoop=1;jettySize=auto;html=1;exitX=0;exitY=0.5;exitDx=0;exitDy=0;entryX=1;entryY=0.5;entryDx=0;entryDy=0;" edge="1" parent="1" source="13" target="7">
                    <mxGeometry relative="1" as="geometry"/>
                </mxCell>
                <mxCell id="37" value="ARTICLE" style="edgeLabel;html=1;align=center;verticalAlign=middle;resizable=0;points=[];" vertex="1" connectable="0" parent="36">
                    <mxGeometry x="-0.4186" y="1" relative="1" as="geometry">
                        <mxPoint x="-16" y="-21" as="offset"/>
                    </mxGeometry>
                </mxCell>
                <mxCell id="13" value="PathNode" style="ellipse;whiteSpace=wrap;html=1;aspect=fixed;" parent="1" vertex="1">
                    <mxGeometry x="362.5" y="150.08999999999997" width="80" height="80" as="geometry"/>
                </mxCell>
                <mxCell id="18" style="edgeStyle=orthogonalEdgeStyle;rounded=0;orthogonalLoop=1;jettySize=auto;elbow=vertical;html=1;exitX=1;exitY=0;exitDx=0;exitDy=0;entryX=0;entryY=0;entryDx=0;entryDy=0;curved=1;" parent="1" source="5" target="5" edge="1">
                    <mxGeometry relative="1" as="geometry">
                        <Array as="points">
                            <mxPoint x="110.5" y="130.09000000000003"/>
                            <mxPoint x="54.5" y="130.09000000000003"/>
                        </Array>
                    </mxGeometry>
                </mxCell>
                <mxCell id="22" value="SUBCATEGORY" style="edgeLabel;html=1;align=center;verticalAlign=middle;resizable=0;points=[];" parent="18" vertex="1" connectable="0">
                    <mxGeometry x="-0.2399" y="4" relative="1" as="geometry">
                        <mxPoint x="-14" y="-14" as="offset"/>
                    </mxGeometry>
                </mxCell>
                <mxCell id="34" value="&lt;b&gt;visit&lt;/b&gt;: (int) [starts at 0 asc.]&lt;br&gt;&lt;b&gt;path_id&lt;/b&gt;: (int) [ID(a_path)]&lt;br&gt;&lt;b&gt;path&lt;/b&gt;: (string) [article name OR &amp;lt; if user used back button]" style="text;html=1;strokeColor=none;fillColor=none;align=left;verticalAlign=middle;whiteSpace=wrap;rounded=0;" vertex="1" parent="1">
                    <mxGeometry x="362.5" y="240.06" width="150" height="120" as="geometry"/>
                </mxCell>
                <mxCell id="44" style="edgeStyle=orthogonalEdgeStyle;rounded=0;orthogonalLoop=1;jettySize=auto;elbow=vertical;html=1;exitX=1;exitY=0;exitDx=0;exitDy=0;entryX=0;entryY=0;entryDx=0;entryDy=0;curved=1;" edge="1" parent="1">
                    <mxGeometry relative="1" as="geometry">
                        <Array as="points">
                            <mxPoint x="430.5" y="129.97000000000003"/>
                            <mxPoint x="374.5" y="129.97000000000003"/>
                        </Array>
                        <mxPoint x="430.78427124745735" y="161.6857287525428" as="sourcePoint"/>
                        <mxPoint x="374.2157287525424" y="161.68572875254245" as="targetPoint"/>
                    </mxGeometry>
                </mxCell>
                <mxCell id="45" value="CONTINUES_PATH" style="edgeLabel;html=1;align=center;verticalAlign=middle;resizable=0;points=[];" vertex="1" connectable="0" parent="44">
                    <mxGeometry x="-0.2399" y="4" relative="1" as="geometry">
                        <mxPoint x="-14" y="-14" as="offset"/>
                    </mxGeometry>
                </mxCell>
                <mxCell id="46" style="edgeStyle=orthogonalEdgeStyle;rounded=0;orthogonalLoop=1;jettySize=auto;elbow=vertical;html=1;exitX=1;exitY=0;exitDx=0;exitDy=0;entryX=0;entryY=0;entryDx=0;entryDy=0;curved=1;" edge="1" parent="1">
                    <mxGeometry relative="1" as="geometry">
                        <Array as="points">
                            <mxPoint x="270.5" y="129.97000000000003"/>
                            <mxPoint x="214.5" y="129.97000000000003"/>
                        </Array>
                        <mxPoint x="270.78427124745735" y="161.6857287525428" as="sourcePoint"/>
                        <mxPoint x="214.21572875254242" y="161.68572875254256" as="targetPoint"/>
                    </mxGeometry>
                </mxCell>
                <mxCell id="47" value="LINKS_TO" style="edgeLabel;html=1;align=center;verticalAlign=middle;resizable=0;points=[];" vertex="1" connectable="0" parent="46">
                    <mxGeometry x="-0.2399" y="4" relative="1" as="geometry">
                        <mxPoint x="-14" y="-14" as="offset"/>
                    </mxGeometry>
                </mxCell>
                <mxCell id="48" value="&lt;span style=&quot;font-size: 18px&quot;&gt;Wikispeedia Neo4j Database Schema&lt;/span&gt;" style="text;html=1;align=left;verticalAlign=middle;resizable=0;points=[];autosize=1;strokeColor=none;" vertex="1" parent="1">
                    <mxGeometry x="42.5" y="40" width="320" height="20" as="geometry"/>
                </mxCell>
            </root>
        </mxGraphModel>
    </diagram>
</mxfile>
